<?xml version="1.0" standalone="no"?>
<!DOCTYPE svg PUBLIC "-//W3C//DTD SVG 20010904//EN"
 "http://www.w3.org/TR/2001/REC-SVG-20010904/DTD/svg10.dtd">
<svg version="1.0" xmlns="http://www.w3.org/2000/svg"
 width="1088.000000pt" height="1088.000000pt" viewBox="0 0 1088.000000 1088.000000"
 preserveAspectRatio="xMidYMid meet">
<metadata>
Created by potrace 1.14, written by Peter Selinger 2001-2017
</metadata>
<g transform="translate(0.000000,1088.000000) scale(0.100000,-0.100000)"
fill="#000000" stroke="none">
<path d="M3180 9043 c0 -5 -27 -7 -59 -5 -34 1 -62 -2 -66 -8 -8 -13 -9 -89
-1 -97 4 -4 44 -8 89 -9 91 -1 248 -12 287 -19 14 -3 42 -7 62 -9 50 -7 212
-56 216 -67 2 -5 9 -9 17 -9 7 0 31 -16 54 -36 64 -57 110 -166 129 -309 9
-65 9 -4804 0 -4870 -20 -155 -65 -265 -131 -318 -42 -35 -95 -65 -125 -73
-173 -42 -269 -53 -502 -58 l-94 -2 -6 -29 c-4 -17 -3 -41 0 -55 7 -28 14 -30
125 -29 39 0 79 -1 90 -1 11 -1 27 -1 35 -1 92 2 122 1 130 -4 6 -3 10 -2 10
3 0 5 16 6 38 2 20 -3 49 -3 65 1 15 4 27 4 27 1 0 -8 154 -6 175 2 8 3 17 1
20 -4 3 -5 11 -7 19 -4 17 7 146 10 146 4 0 -3 24 -4 52 -2 29 2 59 3 66 3 6
0 48 -1 91 -2 44 0 84 2 90 5 5 4 12 2 15 -3 3 -5 20 -6 38 -2 18 4 52 4 76 1
23 -4 42 -4 42 0 0 4 17 4 38 0 20 -3 49 -3 65 1 15 4 27 4 27 1 0 -8 154 -6
175 2 8 3 17 1 20 -4 3 -5 11 -7 19 -4 17 7 146 10 146 4 0 -4 77 -4 90 0 3 1
21 1 40 0 33 -2 54 -16 45 -30 -2 -4 -6 -47 -9 -96 -11 -183 -69 -302 -168
-348 -31 -14 -106 -37 -138 -42 -98 -17 -188 -24 -310 -26 -47 0 -90 -5 -95
-9 -6 -4 -10 -21 -9 -36 1 -15 3 -34 3 -42 1 -9 10 -12 31 -9 17 3 30 1 30 -4
0 -5 4 -7 9 -4 35 22 1835 23 1870 2 5 -4 12 -2 16 4 4 6 10 8 15 5 9 -5 86
-7 155 -2 39 2 40 3 43 45 4 47 9 44 -93 47 -158 5 -372 15 -395 20 -14 3 -47
8 -75 11 -141 14 -295 75 -353 138 -57 63 -86 152 -98 308 l-6 67 49 1 c73 1
73 1 143 1 36 -1 72 -1 80 0 8 0 44 0 80 0 36 -1 72 -1 80 0 8 0 44 0 80 0 36
-1 72 -1 80 0 8 0 44 0 80 0 36 -1 72 -1 80 0 8 0 44 0 80 0 36 -1 72 -1 80 0
8 0 44 0 80 0 36 -1 72 -1 80 0 8 0 44 0 80 0 36 -1 72 -1 80 0 8 0 44 0 80 0
36 -1 72 -1 80 0 8 0 44 0 80 0 36 -1 72 -1 80 0 8 0 44 0 80 0 36 -1 72 -1
80 0 8 0 44 0 80 0 36 -1 72 -1 80 0 28 0 94 -1 135 -3 23 -1 80 14 93 25 27
22 34 63 38 207 3 141 10 294 19 415 2 33 6 100 10 149 3 49 8 108 10 130 8
81 15 152 21 221 3 39 8 84 10 100 2 17 7 60 10 97 l7 67 -29 6 c-16 4 -34 8
-40 10 -19 6 -35 -11 -40 -41 -2 -16 -9 -54 -15 -84 -6 -30 -12 -67 -14 -81
-17 -119 -103 -367 -173 -499 -133 -249 -355 -435 -592 -495 -39 -9 -113 -26
-140 -31 -19 -3 -293 -7 -607 -9 l-573 -3 0 41 c-2 452 1 1561 4 1565 7 6 960
4 1011 -3 164 -20 161 -19 232 -40 117 -34 216 -100 278 -186 17 -23 55 -108
55 -122 0 -8 3 -17 7 -21 4 -3 8 -12 9 -19 1 -7 5 -28 8 -47 4 -19 9 -71 12
-115 7 -108 6 -107 56 -103 l43 3 -3 185 c-2 102 -5 406 -6 675 -1 270 -3 495
-4 501 -3 15 -31 22 -62 14 -17 -4 -24 -13 -26 -30 -10 -162 -38 -261 -96
-343 -45 -64 -162 -134 -250 -151 -13 -2 -43 -9 -68 -14 -96 -22 -182 -25
-682 -27 l-518 -1 0 120 c-1 1023 1 1749 5 1780 29 215 108 298 328 342 99 19
959 28 1054 11 164 -30 295 -97 400 -204 56 -57 134 -168 154 -219 5 -16 16
-42 23 -59 17 -41 33 -93 40 -135 3 -19 9 -46 12 -60 3 -14 7 -64 9 -112 2
-48 6 -91 9 -96 9 -14 39 -20 62 -11 21 7 21 12 18 261 -10 753 -10 761 -34
780 -23 19 -86 21 -480 18 -69 -1 -132 -1 -140 -1 -19 0 -1260 0 -1280 0 -8 0
-291 0 -628 1 l-613 0 4 543 c2 298 7 558 11 577 19 90 36 143 59 183 92 154
263 208 709 221 43 1 79 4 82 7 8 8 10 84 2 97 -4 6 -17 12 -29 12 -12 0 -29
0 -37 0 -33 1 -345 -8 -520 -16 -241 -10 -794 -10 -1035 0 -104 4 -253 9 -331
10 -78 2 -146 6 -153 10 -6 4 -11 3 -11 -1z m1382 -1747 c91 -5 185 -21 265
-47 145 -47 203 -133 229 -339 9 -70 11 -3658 2 -3672 -4 -8 -37 -9 -100 -4
-313 22 -455 106 -497 291 -6 28 -14 64 -18 80 -4 17 -9 854 -10 1862 l-4
1832 23 3 c13 2 26 2 30 0 5 -1 41 -5 80 -6z"/>
</g>
</svg>
